<svg xmlns="http://www.w3.org/2000/svg" width="64" height="64" viewBox="0 0 64 64">
  <g fill="none" fill-rule="evenodd">
    <rect width="64" height="64" fill="#B81365" rx="3"/>
    <path fill="#FFF" fill-rule="nonzero" d="M18.7961471,13 L22.4835139,25.3945205 C22.8698095,26.6410959 23.1770901,27.7719178 23.4053557,28.7869863 C23.6336212,29.8020548 23.7828718,30.5589041 23.8531073,31.0575342 C23.9233429,30.5589041 24.0725935,29.8020548 24.300859,28.7869863 C24.4965152,27.9169276 24.7502233,26.9618256 25.0619832,25.9216802 L25.2227008,25.3945205 L28.8573909,13 L53,13 L53,19 L37,19 L37,29 L49.8125,29 L49.8125,35 L37,35 L37,46 L53,46 L53,52 L30.5367232,52 L30.536,21.656 L26.6976475,35.2246575 L20.9558905,35.2246575 L17.204,22.364 L17.2049484,52 L11,52 L11,13 L18.7961471,13 Z"/>
  </g>
</svg>
